<svg width="93" height="21" viewBox="0 0 93 21" fill="none" xmlns="http://www.w3.org/2000/svg">
<path d="M10.4958 17.1008V10.3025H13.895V17.1008H10.4958ZM10.4958 6.90332V3.5H13.895V6.90332H10.4958ZM0.29834 20.5V0.10083H10.4958V3.5H3.69751V6.90332H10.4958V10.3025H3.69751V17.1008H10.4958V20.5H0.29834ZM24.0967 20.5V3.5H17.2983V0.10083H34.2983V3.5H27.4958V20.5H24.0967ZM41.1008 20.5V17.1008H47.8992V20.5H41.1008ZM47.8992 17.1008V13.7017H51.2983V17.1008H47.8992ZM37.7017 17.1008V3.5H41.1008V17.1008H37.7017ZM47.8992 6.90332V3.5H51.2983V6.90332H47.8992ZM41.1008 3.5V0.10083H47.8992V3.5H41.1008Z" fill="black"/>
<path d="M59 20.5V13.7017H62.3992V17.1008H72.5967V20.5H59ZM62.3992 13.7017V10.3025H65.7983V13.7017H62.3992ZM65.7983 10.3025V6.90332H69.1975V10.3025H65.7983ZM69.1975 6.90332V3.5H72.5967V6.90332H69.1975ZM59 3.5V0.10083H69.1975V3.5H59ZM86.1975 17.1008V3.5H79.3992V17.1008H86.1975ZM76 20.5V0.10083H89.5967V20.5H76Z" fill="#E45836"/>
</svg>
