<svg width="24" height="24" viewBox="0 0 24 24" fill="none" xmlns="http://www.w3.org/2000/svg">
<g clip-path="url(#clip0_719_1078)">
<path d="M12 23.5L11.9988 23.5C10.4877 23.5037 8.99079 23.2088 7.59402 22.6323C6.19724 22.0557 4.92815 21.2089 3.85964 20.1404C2.79114 19.0719 1.94429 17.8028 1.36774 16.406C0.791195 15.0093 0.496312 13.5123 0.500036 12.0012V12C0.500036 9.72552 1.1745 7.50211 2.43814 5.61095C3.70177 3.71978 5.49783 2.2458 7.59918 1.37539C9.70053 0.504983 12.0128 0.277245 14.2436 0.720975C16.4744 1.1647 18.5235 2.25997 20.1318 3.86828C21.7401 5.47658 22.8353 7.52569 23.2791 9.75647C23.7228 11.9872 23.4951 14.2995 22.6247 16.4009C21.7542 18.5022 20.2803 20.2983 18.3891 21.5619C16.4979 22.8255 14.2745 23.5 12 23.5Z" fill="#F9F4F0" stroke="black"/>
<path d="M8.13887 16.0176C8.13887 13.6434 8.13887 11.2806 8.13887 8.90826C8.10436 8.90636 8.07177 8.90255 8.04109 8.90255C7.72282 8.90255 7.40455 8.90064 7.08628 8.90445C7.01726 8.90445 7 8.88349 7 8.8168C7.00192 8.23182 7.00192 7.64875 7.00192 7.06377C7.00192 7.039 7.00192 7.01423 7.00192 6.98374C7.04985 6.98183 7.0882 6.97802 7.12462 6.97802C8.25007 6.97802 9.37361 6.97612 10.4991 6.97993C10.6007 6.97993 10.6544 6.94753 10.7042 6.86369C11.2794 5.93954 11.8584 5.01729 12.4355 4.09505C12.516 3.96738 12.5295 3.96738 12.61 4.10076C13.1986 5.06493 13.7891 6.02719 14.3777 6.99136C14.4103 7.04281 14.4468 7.06948 14.5081 7.08092C15.0737 7.18 15.6144 7.34959 16.0956 7.67352C16.759 8.1194 17.1367 8.73677 17.2115 9.53135C17.2805 10.2707 17.1252 10.9509 16.6651 11.5492C16.4599 11.816 16.2068 12.0294 15.9173 12.2028C15.9001 12.2123 15.8847 12.2257 15.8598 12.2409C15.9633 12.2848 16.0611 12.321 16.1551 12.3648C17.0619 12.7897 17.5854 13.4985 17.7215 14.4856C17.7982 15.0458 17.7541 15.5965 17.5298 16.1224C17.292 16.6807 16.8836 17.0846 16.3545 17.3724C15.8579 17.6429 15.3191 17.7858 14.7631 17.8678C14.6787 17.8792 14.5944 17.8849 14.5119 17.9021C14.4774 17.9097 14.4429 17.9345 14.4199 17.9611C14.0096 18.3975 13.5993 18.8339 13.1909 19.2702C12.9762 19.4989 12.7595 19.7294 12.5448 19.9581C12.5333 19.9714 12.5199 19.9829 12.5007 20C12.4835 19.9829 12.4662 19.9695 12.4509 19.9543C11.8507 19.3007 11.2506 18.6452 10.6467 17.9935C10.6198 17.965 10.5662 17.9497 10.5259 17.9478C9.38894 17.9459 8.25007 17.9459 7.11312 17.9459C7.00383 17.9459 7.00383 17.9459 7.00383 17.8411C7.00383 17.2695 7.00383 16.6978 7.00383 16.1262C7.00383 16.0252 7.00383 16.0252 7.10545 16.0252C7.41797 16.0252 7.7324 16.0252 8.04492 16.0252C8.07177 16.0214 8.10052 16.0195 8.13887 16.0176ZM12.1383 16.0214C12.1383 16.0195 12.1383 16.0195 12.1383 16.0214C12.6177 16.0195 13.0989 16.0252 13.5782 16.0176C13.885 16.0138 14.186 15.9718 14.4774 15.867C14.7823 15.7565 15.0334 15.5831 15.1772 15.284C15.2904 15.0477 15.3134 14.7962 15.2942 14.537C15.2597 14.0797 15.0373 13.7501 14.6212 13.5519C14.2895 13.3918 13.931 13.3366 13.5667 13.3328C12.5927 13.3251 11.6207 13.3309 10.6467 13.327C10.5719 13.327 10.5585 13.3556 10.5585 13.4204C10.5604 14.255 10.5604 15.0896 10.5585 15.9242C10.5585 16.0023 10.5815 16.0233 10.6582 16.0214C11.1529 16.0195 11.6456 16.0214 12.1383 16.0214ZM11.868 11.4692C12.24 11.4692 12.6119 11.4711 12.9858 11.4692C13.2715 11.4673 13.5552 11.4425 13.8313 11.3625C14.1438 11.271 14.4218 11.1262 14.6021 10.8404C14.7612 10.5908 14.7976 10.3145 14.7708 10.0249C14.7344 9.63615 14.5522 9.34081 14.2071 9.15026C13.8984 8.98067 13.561 8.91207 13.2159 8.90826C12.3607 8.89683 11.5056 8.90255 10.6505 8.90064C10.5853 8.90064 10.5604 8.91779 10.5604 8.98639C10.5623 9.78859 10.5623 10.5889 10.5604 11.3911C10.5604 11.454 10.5796 11.473 10.6448 11.473C11.0512 11.4692 11.4596 11.4692 11.868 11.4692Z" fill="black"/>
<mask id="mask0_719_1078" style="mask-type:alpha" maskUnits="userSpaceOnUse" x="7" y="4" width="11" height="16">
<path d="M8.13887 16.0176C8.13887 13.6434 8.13887 11.2806 8.13887 8.90826C8.10436 8.90636 8.07177 8.90255 8.04109 8.90255C7.72282 8.90255 7.40455 8.90064 7.08628 8.90445C7.01726 8.90445 7 8.88349 7 8.8168C7.00192 8.23182 7.00192 7.64875 7.00192 7.06377C7.00192 7.039 7.00192 7.01423 7.00192 6.98374C7.04985 6.98183 7.0882 6.97802 7.12462 6.97802C8.25007 6.97802 9.37361 6.97612 10.4991 6.97993C10.6007 6.97993 10.6544 6.94753 10.7042 6.86369C11.2794 5.93954 11.8584 5.01729 12.4355 4.09505C12.516 3.96738 12.5295 3.96738 12.61 4.10076C13.1986 5.06493 13.7891 6.02719 14.3777 6.99136C14.4103 7.04281 14.4468 7.06948 14.5081 7.08092C15.0737 7.18 15.6144 7.34959 16.0956 7.67352C16.759 8.1194 17.1367 8.73677 17.2115 9.53135C17.2805 10.2707 17.1252 10.9509 16.6651 11.5492C16.4599 11.816 16.2068 12.0294 15.9173 12.2028C15.9001 12.2123 15.8847 12.2257 15.8598 12.2409C15.9633 12.2848 16.0611 12.321 16.1551 12.3648C17.0619 12.7897 17.5854 13.4985 17.7215 14.4856C17.7982 15.0458 17.7541 15.5965 17.5298 16.1224C17.292 16.6807 16.8836 17.0846 16.3545 17.3724C15.8579 17.6429 15.3191 17.7858 14.7631 17.8678C14.6787 17.8792 14.5944 17.8849 14.5119 17.9021C14.4774 17.9097 14.4429 17.9345 14.4199 17.9611C14.0096 18.3975 13.5993 18.8339 13.1909 19.2702C12.9762 19.4989 12.7595 19.7294 12.5448 19.9581C12.5333 19.9714 12.5199 19.9829 12.5007 20C12.4835 19.9829 12.4662 19.9695 12.4509 19.9543C11.8507 19.3007 11.2506 18.6452 10.6467 17.9935C10.6198 17.965 10.5662 17.9497 10.5259 17.9478C9.38894 17.9459 8.25007 17.9459 7.11312 17.9459C7.00383 17.9459 7.00383 17.9459 7.00383 17.8411C7.00383 17.2695 7.00383 16.6978 7.00383 16.1262C7.00383 16.0252 7.00383 16.0252 7.10545 16.0252C7.41797 16.0252 7.7324 16.0252 8.04492 16.0252C8.07177 16.0214 8.10052 16.0195 8.13887 16.0176ZM12.1383 16.0214C12.1383 16.0195 12.1383 16.0195 12.1383 16.0214C12.6177 16.0195 13.0989 16.0252 13.5782 16.0176C13.885 16.0138 14.186 15.9718 14.4774 15.867C14.7823 15.7565 15.0334 15.5831 15.1772 15.284C15.2904 15.0477 15.3134 14.7962 15.2942 14.537C15.2597 14.0797 15.0373 13.7501 14.6212 13.5519C14.2895 13.3918 13.931 13.3366 13.5667 13.3328C12.5927 13.3251 11.6207 13.3309 10.6467 13.327C10.5719 13.327 10.5585 13.3556 10.5585 13.4204C10.5604 14.255 10.5604 15.0896 10.5585 15.9242C10.5585 16.0023 10.5815 16.0233 10.6582 16.0214C11.1529 16.0195 11.6456 16.0214 12.1383 16.0214ZM11.868 11.4692C12.24 11.4692 12.6119 11.4711 12.9858 11.4692C13.2715 11.4673 13.5552 11.4425 13.8313 11.3625C14.1438 11.271 14.4218 11.1262 14.6021 10.8404C14.7612 10.5908 14.7976 10.3145 14.7708 10.0249C14.7344 9.63615 14.5522 9.34081 14.2071 9.15026C13.8984 8.98067 13.561 8.91207 13.2159 8.90826C12.3607 8.89683 11.5056 8.90255 10.6505 8.90064C10.5853 8.90064 10.5604 8.91779 10.5604 8.98639C10.5623 9.78859 10.5623 10.5889 10.5604 11.3911C10.5604 11.454 10.5796 11.473 10.6448 11.473C11.0512 11.4692 11.4596 11.4692 11.868 11.4692Z" fill="black"/>
</mask>
<g mask="url(#mask0_719_1078)">
<rect x="6.59668" y="6.5542" width="11.563" height="13.8487" fill="black"/>
<rect x="5.25195" y="12.5923" width="11.563" height="0.403361" transform="rotate(-30.7002 5.25195 12.5923)" fill="black"/>
</g>
</g>
<defs>
<clipPath id="clip0_719_1078">
<rect width="24" height="24" fill="white"/>
</clipPath>
</defs>
</svg>
