<svg width="16" height="16" viewBox="0 0 16 16" fill="none" xmlns="http://www.w3.org/2000/svg">
    <path d="M14.6693 5.14156V4.38601C14.6693 3.91282 14.4813 3.45902 14.1467 3.12443C13.8121 2.78985 13.3583 2.60187 12.8851 2.60187H11.4947V1.64949C11.4947 1.5653 11.4612 1.48455 11.4017 1.42501C11.3421 1.36548 11.2614 1.33203 11.1772 1.33203C11.093 1.33203 11.0123 1.36548 10.9527 1.42501C10.8932 1.48455 10.8597 1.5653 10.8597 1.64949V2.60187H5.14546V1.64949C5.14546 1.5653 5.11201 1.48455 5.05248 1.42501C4.99294 1.36548 4.9122 1.33203 4.828 1.33203C4.74381 1.33203 4.66306 1.36548 4.60352 1.42501C4.54399 1.48455 4.51054 1.5653 4.51054 1.64949V2.60187H3.12006C2.64688 2.60187 2.19308 2.78985 1.8585 3.12443C1.52391 3.45902 1.33594 3.91282 1.33594 4.38601V5.14156H14.6693Z" fill="white"/>
    <path d="M1.33594 5.77734V12.8821C1.33594 13.3553 1.52391 13.8091 1.8585 14.1437C2.19308 14.4783 2.64688 14.6662 3.12006 14.6662H12.8851C13.3583 14.6662 13.8121 14.4783 14.1467 14.1437C14.4813 13.8091 14.6693 13.3553 14.6693 12.8821V5.77734H1.33594Z" fill="white"/>
</svg>
