<svg width="10" height="10" viewBox="0 0 10 10" fill="none" xmlns="http://www.w3.org/2000/svg">
    <path fill-rule="evenodd" clip-rule="evenodd" d="M9.84546 9.84546C10.0513 9.63961 10.0513 9.30585 9.84546 9.1L5.74545 4.99998L9.84547 0.899959C10.0513 0.694104 10.0513 0.360347 9.84547 0.154492C9.63962 -0.0513628 9.30586 -0.0513636 9.1 0.154491L4.99998 4.25452L0.899859 0.154391C0.694004 -0.0514638 0.360247 -0.0514637 0.154392 0.154391C-0.0514633 0.360246 -0.0514642 0.694002 0.154391 0.899857L4.25451 4.99998L0.154398 9.1001C-0.0514568 9.30595 -0.0514567 9.63971 0.154398 9.84556C0.360253 10.0514 0.694009 10.0514 0.899864 9.84557L4.99998 5.74545L9.1 9.84546C9.30585 10.0513 9.63961 10.0513 9.84546 9.84546Z" fill="#787A8D"/>
</svg>
