<svg width="12" height="12" viewBox="0 0 12 12" fill="none"
                                                xmlns="http://www.w3.org/2000/svg">
                                                <path
                                                    d="M1.39091 11.7614C1.07272 12.0795 0.556831 12.0795 0.238642 11.7614C-0.0795473 11.4432 -0.0795473 10.9273 0.238642 10.6091L10.609 0.238671C10.9272 -0.0795195 11.4431 -0.0795196 11.7613 0.238671C12.0795 0.556861 12.0795 1.07275 11.7613 1.39094L1.39091 11.7614Z"
                                                    fill="#EC412A" />
                                                <path
                                                    d="M11.7614 10.6091C12.0795 10.9273 12.0795 11.4431 11.7614 11.7613C11.4432 12.0795 10.9273 12.0795 10.6091 11.7613L0.238705 1.39091C-0.0794841 1.07272 -0.0794842 0.556833 0.238705 0.238643C0.556894 -0.0795476 1.07278 -0.0795475 1.39097 0.238643L11.7614 10.6091Z"
                                                    fill="#EC412A" />
                                            </svg>
