<svg width="512" height="512" viewBox="0 0 512 512" fill="none" xmlns="http://www.w3.org/2000/svg">
<path d="M477.64 38.2599C477.457 37.3755 477.026 36.5615 476.398 35.9132C475.769 35.265 474.968 34.8094 474.09 34.5999C415.52 20.2799 280.19 71.31 206.87 144.6C193.793 157.571 181.871 171.658 171.24 186.7C148.63 184.7 126.02 186.37 106.75 194.77C52.38 218.7 36.55 281.14 32.14 308C31.8899 309.47 31.9842 310.978 32.4156 312.406C32.8471 313.833 33.6038 315.141 34.6263 316.227C35.6489 317.312 36.9093 318.146 38.3085 318.662C39.7077 319.178 41.2075 319.362 42.69 319.2L130 309.57C130.062 316.153 130.46 322.728 131.19 329.27C131.629 333.813 133.646 338.059 136.89 341.27L170.7 375C173.914 378.24 178.158 380.256 182.7 380.7C189.206 381.428 195.744 381.825 202.29 381.89L192.71 469.09C192.55 470.572 192.736 472.071 193.253 473.469C193.769 474.867 194.603 476.127 195.688 477.149C196.773 478.171 198.08 478.928 199.506 479.36C200.933 479.792 202.44 479.888 203.91 479.64C230.72 475.34 293.27 459.51 317.06 405.14C325.46 385.87 327.18 363.37 325.24 340.87C340.318 330.238 354.442 318.313 367.45 305.23C441 232.05 491.74 99.7399 477.64 38.2599ZM294.07 217.93C287.354 211.218 282.779 202.666 280.925 193.354C279.07 184.042 280.019 174.389 283.651 165.616C287.283 156.843 293.435 149.345 301.329 144.069C309.224 138.794 318.505 135.978 328 135.978C337.495 135.978 346.776 138.794 354.671 144.069C362.565 149.345 368.717 156.843 372.349 165.616C375.981 174.389 376.93 184.042 375.075 193.354C373.221 202.666 368.646 211.218 361.93 217.93C357.477 222.39 352.188 225.928 346.366 228.342C340.543 230.756 334.303 231.998 328 231.998C321.697 231.998 315.457 230.756 309.634 228.342C303.812 225.928 298.523 222.39 294.07 217.93Z" fill="white"/>
<path d="M168.4 399.43C162.92 404.92 154.13 407.06 143.55 408.89C119.78 412.94 98.79 392.4 103.06 368.37C104.69 359.26 109.51 346.49 112.51 343.49C113.166 342.847 113.602 342.014 113.757 341.108C113.913 340.203 113.779 339.272 113.375 338.447C112.97 337.623 112.317 336.946 111.506 336.514C110.696 336.082 109.77 335.916 108.86 336.04C95.5676 337.666 83.2014 343.693 73.73 353.16C50.22 376.69 48 464 48 464C48 464 135.36 461.78 158.87 438.25C168.367 428.786 174.401 416.401 176 403.09C176.37 398.91 171.28 396.42 168.4 399.43Z" fill="white"/>
</svg>
