<svg width="11" height="13" viewBox="0 0 11 13" fill="none" xmlns="http://www.w3.org/2000/svg">
<path d="M2.33232 5.58322H3.45857V9.12489C3.45857 9.51447 3.77732 9.83322 4.16691 9.83322H7.00024C7.38982 9.83322 7.70857 9.51447 7.70857 9.12489V5.58322H8.83482C9.46524 5.58322 9.78399 4.81822 9.33774 4.37197L6.08649 1.12072C6.02096 1.05506 5.94312 1.00296 5.85743 0.967416C5.77174 0.93187 5.67989 0.913574 5.58712 0.913574C5.49435 0.913574 5.40249 0.93187 5.3168 0.967416C5.23111 1.00296 5.15327 1.05506 5.08774 1.12072L1.83649 4.37197C1.39024 4.81822 1.70191 5.58322 2.33232 5.58322ZM0.632324 11.9582C0.632324 12.3478 0.951074 12.6666 1.34066 12.6666H9.84066C10.2302 12.6666 10.549 12.3478 10.549 11.9582C10.549 11.5686 10.2302 11.2499 9.84066 11.2499H1.34066C0.951074 11.2499 0.632324 11.5686 0.632324 11.9582Z" fill="#00A676"/>
</svg>
