<svg width="40" height="38" viewBox="0 0 40 38" fill="none" xmlns="http://www.w3.org/2000/svg">
<path d="M39.6921 33.7243L22.1903 1.89176C21.7456 1.08379 20.9263 0.600586 20 0.600586C19.0737 0.600586 18.2545 1.08379 17.8097 1.89176L0.307916 33.7243C-0.11607 34.5002 -0.101695 35.4154 0.347916 36.1738C0.80073 36.9418 1.6055 37.3994 2.4998 37.3994H37.5002C38.3945 37.3994 39.1993 36.9418 39.6521 36.1738C40.1016 35.4154 40.1161 34.5002 39.6921 33.7243ZM19.6049 13.4338C19.7392 13.4113 19.872 13.4002 20.0032 13.4002C21.1552 13.4002 22.1711 14.2242 22.3664 15.3841C22.4128 15.6481 22.4079 15.9169 22.3664 16.1664L20.7888 25.5373C20.7231 25.9245 20.384 26.1997 20.0016 26.1997C19.9584 26.1997 19.912 26.1965 19.8688 26.1885C19.5216 26.1309 19.2656 25.8621 19.2112 25.5373L17.6337 16.1664C17.4145 14.8721 18.2993 13.6481 19.6049 13.4338ZM20 32.5995C18.6769 32.5995 17.6001 31.5228 17.6001 30.1996C17.6001 28.8763 18.6768 27.7996 20 27.7996C21.3232 27.7996 22.3999 28.8764 22.3999 30.1996C22.3999 31.5227 21.3231 32.5995 20 32.5995Z" fill="white"/>
</svg>
